<svg width="18" height="18" viewBox="0 0 18 18" fill="none" xmlns="http://www.w3.org/2000/svg">
<path d="M17.958 12.3251C18.162 11.8391 17.579 11.4251 17.09 11.6411C16.1126 12.0701 15.0565 12.2908 13.989 12.2891C9.804 12.2891 6.412 8.96506 6.412 4.86406C6.41047 3.4794 6.80385 2.12303 7.546 0.954059C7.83 0.506059 7.489 -0.113941 6.969 0.0180591C2.96 1.04106 0 4.61306 0 8.86206C0 13.9091 4.175 18.0001 9.326 18.0001C13.226 18.0001 16.566 15.6551 17.958 12.3251Z" fill="#F04A94"/>
<path d="M12.6105 0.103038C12.0805 -0.250962 11.4485 0.381038 11.8015 0.911038L12.4315 1.85604C12.6871 2.2392 12.8235 2.68946 12.8235 3.15004C12.8235 3.61061 12.6871 4.06087 12.4315 4.44404L11.8015 5.38904C11.4485 5.91904 12.0815 6.55104 12.6115 6.19704L13.5555 5.56704C13.9387 5.31147 14.3889 5.17509 14.8495 5.17509C15.3101 5.17509 15.7604 5.31147 16.1435 5.56704L17.0885 6.19704C17.6185 6.55104 18.2505 5.91904 17.8965 5.38904L17.2665 4.44404C17.011 4.06087 16.8746 3.61061 16.8746 3.15004C16.8746 2.68946 17.011 2.2392 17.2665 1.85604L17.8965 0.911038C18.2505 0.381038 17.6185 -0.250962 17.0875 0.103038L16.1435 0.733038C15.7604 0.988605 15.3101 1.12499 14.8495 1.12499C14.3889 1.12499 13.9387 0.988605 13.5555 0.733038L12.6105 0.103038Z" fill="#F04A94"/>
</svg>
